<?xml version="1.0" encoding="UTF-8"?>
<svg width="241px" height="65px" viewBox="0 0 241 65" version="1.1" xmlns="http://www.w3.org/2000/svg" xmlns:xlink="http://www.w3.org/1999/xlink">
    <!-- Generator: Sketch 49.3 (51167) - http://www.bohemiancoding.com/sketch -->
    <title>Georepublic_logo@3x</title>
    <desc>Created with Sketch.</desc>
    <defs>
        <path d="M155.721986,136 L150.068562,134.030022 L154.961235,118.085397 L143.262825,118.085397 C142.181365,118.085397 141.16703,117.848852 140.212363,117.379458 C139.287528,116.873103 138.567798,116.11542 138.045714,115.095318 L138.004693,115.025094 L137.0724,118.085397 C136.792713,118.085397 136.430983,118.085397 135.987212,118.085397 C135.59192,118.085397 135.151877,118.085397 134.667085,118.085397 C134.186022,118.085397 133.719876,118.085397 133.276104,118.085397 C132.880812,118.085397 132.541457,118.085397 132.254311,118.085397 C131.012497,118.085397 129.848996,117.793412 128.767536,117.198353 C127.723368,116.603294 126.899221,115.719946 126.298825,114.533524 C126.172033,114.274802 126.086262,114.016081 126.00795,113.764752 C125.918449,113.513422 125.866241,113.228829 125.82522,112.929451 C125.746908,112.678122 125.676053,112.430489 125.635032,112.17916 C125.635032,111.920438 125.635032,111.669109 125.635032,111.410388 C125.635032,110.057645 125.925908,108.73447 126.489013,107.466736 C127.052117,106.154649 127.700993,104.953443 128.458015,103.848334 L127.510806,103.848334 C127.384014,103.848334 127.272139,103.874206 127.152805,103.918558 C127.067034,103.918558 126.962617,103.940734 126.847013,103.985086 C126.440533,104.107055 126.060158,104.36208 125.698428,104.735378 C124.892927,105.611334 124.620698,106.420763 124.322364,107.599793 L124.094885,108.952535 L122.923925,108.937751 L120.045005,108.937751 C119.522921,111.391908 118.273648,113.531902 116.312104,115.350344 C114.380394,117.172481 112.172724,118.085397 109.681638,118.085397 C109.562304,118.085397 109.442971,118.085397 109.327367,118.085397 C109.249054,118.085397 109.144637,118.059525 109.025304,118.015173 C108.898512,118.015173 108.786637,118.015173 108.663574,118.015173 C108.585262,117.974517 108.495761,117.956037 108.36897,117.956037 C106.1613,117.623395 104.375027,116.577422 103.006421,114.843989 C102.775213,114.533524 102.588754,114.223058 102.398567,113.901504 L101.070982,118.085397 L87.9480281,118.085397 C86.8628393,118.085397 85.8447755,117.848852 84.8789202,117.379458 C83.9615441,116.873103 83.2343557,116.11542 82.7122717,115.095318 C82.4736047,114.633316 82.3020629,114.123265 82.1790002,113.572559 C82.0633959,113.018156 82,112.471145 82,111.920438 C82,111.794774 82,111.669109 82,111.543444 C82.0372917,111.377124 82.0559376,111.203411 82.0559376,111.033394 C82.1342502,110.187006 82.2908754,109.336921 82.5370007,108.494229 C82.8129593,107.599793 83.1001055,106.790364 83.3760642,106.069641 C84.222586,104.033134 85.2406498,102.362534 86.4451721,101.054143 C87.6944444,99.6977046 88.969821,98.6886915 90.297406,98.0123201 C90.8605108,97.6685903 91.4049698,97.409869 91.9270538,97.2398522 C92.4864295,97.0328751 93.0271593,96.8813383 93.5492433,96.8000259 C93.784181,96.7593697 94.0303063,96.7334976 94.2652441,96.7334976 C94.5113694,96.6928414 94.7649531,96.6669693 95.0520993,96.6669693 C96.6892054,96.6669693 98.1584989,97.1585397 99.4413338,98.1305927 C100.731627,99.1063416 101.361857,100.459084 101.361857,102.196213 C101.361857,102.528855 101.332024,102.905849 101.249982,103.282843 C101.21269,103.622876 101.108273,103.99987 100.940461,104.424912 C100.62721,105.48567 99.9634177,106.638828 98.9565415,107.910258 C97.9533945,109.137336 96.5624136,110.430943 94.7574947,111.783686 L101.466274,111.783686 C101.171669,110.807937 101.022502,109.78414 101.022502,108.67903 C101.022502,105.670471 102.074129,103.005641 104.155006,100.67715 C106.243342,98.3043055 108.741887,97.1104915 111.676745,97.1104915 C113.440643,97.1104915 115.003165,97.598366 116.371771,98.5704189 C117.773939,99.5461678 118.80692,100.84347 119.496817,102.443846 L119.623608,102.443846 L121.965528,94.7043833 L127.682347,96.6669693 L127.384014,97.5022695 L139.239049,97.5022695 L139.239049,103.848334 L136.945609,103.848334 C136.706942,104.014654 136.341483,104.36208 135.86042,104.868435 C135.379357,105.378485 134.879648,105.947672 134.357564,106.583387 C134.200939,106.749708 134.036855,106.949293 133.876501,107.15627 C133.719876,107.366943 133.56698,107.551744 133.402896,107.725457 C132.88827,108.442485 132.444499,109.122552 132.082769,109.754571 C131.717311,110.345934 131.534581,110.841201 131.534581,111.225587 C131.575602,111.391908 131.627811,111.536052 131.709852,111.669109 C131.829186,111.750421 132.019373,111.783686 132.254311,111.783686 L137.318526,111.783686 C137.318526,111.702373 137.318526,111.628453 137.318526,111.543444 C137.355818,111.377124 137.378193,111.203411 137.378193,111.033394 C137.456505,110.187006 137.609401,109.336921 137.855526,108.494229 C138.131485,107.599793 138.42236,106.790364 138.709507,106.069641 C139.544841,104.033134 140.559176,102.362534 141.759969,101.054143 C143.005512,99.6977046 144.299534,98.6886915 145.619661,98.0123201 C146.182766,97.6685903 146.719766,97.409869 147.24185,97.2398522 C147.804955,97.0328751 148.349414,96.8813383 148.871498,96.8000259 C149.110165,96.7593697 149.345103,96.7334976 149.58377,96.7334976 C149.822437,96.6928414 150.090937,96.6669693 150.374354,96.6669693 C152.022648,96.6669693 153.480754,97.1585397 154.771047,98.1305927 C156.053882,99.1063416 156.695299,100.459084 156.695299,102.196213 C156.695299,102.528855 156.64682,102.905849 156.568508,103.282843 C156.527487,103.622876 156.434257,103.99987 156.273903,104.424912 C155.949465,105.48567 155.285673,106.638828 154.282526,107.910258 C153.286837,109.137336 151.869752,110.430943 150.068562,111.783686 L156.885487,111.783686 C157.36655,110.157437 157.698446,108.704902 157.888634,107.414992 C158.097468,106.054857 158.194426,104.846259 158.194426,103.781805 C158.194426,102.972377 158.149676,102.262742 158.071364,101.627026 C157.993051,100.954351 157.896093,100.359292 157.776759,99.8492413 C157.739467,99.6829205 157.690988,99.5165997 157.649967,99.3391908 C157.649967,99.1728699 157.635051,99.0213332 157.597759,98.8956685 C157.556738,98.6886915 157.508259,98.5482428 157.470967,98.5038905 C157.470967,98.4188821 157.444863,98.3634418 157.407571,98.3190896 L163.251182,96.9848269 C163.336953,97.199196 163.370516,97.3433407 163.370516,97.4357411 C163.370516,97.4763974 163.370516,97.5022695 163.370516,97.5022695 C163.411537,97.7092465 163.44137,97.9199196 163.482391,98.1305927 C163.519683,98.3449617 163.568162,98.5778109 163.605454,98.8291402 C163.732246,99.2948385 163.836662,99.8233692 163.914975,100.418428 C163.993287,100.969135 164.056683,101.58637 164.097704,102.262742 C165.37681,100.954351 166.793895,99.8418493 168.360147,98.9548048 C169.96742,98.0197121 171.634359,97.5503177 173.360966,97.5503177 C173.793549,97.5503177 174.237321,97.598366 174.681092,97.6833744 C175.124864,97.7277266 175.564906,97.8459992 176.008677,98.0123201 C177.612221,98.5630268 178.861493,99.5313837 179.790057,100.924783 C180.755912,102.32927 181.244434,103.918558 181.244434,105.696343 C181.244434,106.749708 181.054246,107.810466 180.692516,108.871223 C180.375537,109.880236 179.931765,110.859681 179.36866,111.783686 L181.829913,111.783686 C181.814997,111.561925 181.80008,111.325379 181.807538,111.085138 C181.807538,110.874465 181.807538,110.667488 181.807538,110.456815 C181.84483,110.242446 181.893309,110.031773 181.930601,109.8211 C181.930601,109.614123 181.956705,109.40345 181.993997,109.185385 C182.076039,108.978407 182.131976,108.767734 182.169268,108.560757 L185.53671,97.5022695 L191.786801,97.5022695 L187.826421,110.523343 C187.7854,110.649008 187.736921,110.774673 187.699629,110.900337 C187.699629,111.026002 187.699629,111.136882 187.699629,111.225587 C187.699629,111.391908 187.748108,111.536052 187.826421,111.669109 C187.953213,111.750421 188.147129,111.783686 188.426817,111.783686 C188.546151,111.783686 188.661755,111.783686 188.781089,111.783686 C188.904151,111.743029 189.034672,111.709765 189.154006,111.669109 C189.832715,111.495396 190.474132,111.140578 191.074529,110.593568 C191.678655,109.998509 192.073947,109.377577 192.275322,108.741862 C192.275322,108.704902 192.275322,108.67903 192.275322,108.67903 C192.316343,108.638374 192.342447,108.60511 192.342447,108.560757 L195.765826,97.5022695 L201.967438,97.5022695 L198.059267,110.523343 C198.018246,110.649008 197.969766,110.774673 197.932475,110.900337 C197.932475,111.026002 197.932475,111.136882 197.932475,111.225587 C197.932475,111.391908 197.980954,111.536052 198.059267,111.669109 C198.1786,111.750421 198.376246,111.783686 198.659663,111.783686 L201.050062,111.783686 C200.96802,111.251459 200.92327,110.708144 200.938187,110.150045 C200.938187,109.891324 200.938187,109.628907 200.938187,109.377577 C200.975478,109.0782 201.027687,108.786214 201.064979,108.494229 C201.105999,108.194852 201.135833,107.910258 201.176854,107.658929 C201.262625,107.359551 201.340937,107.089742 201.422979,106.834717 L209.970239,79 L216.227789,79 L207.076403,108.804695 C207.039111,108.926663 207.005548,109.063416 206.964527,109.185385 C206.964527,109.270393 206.942152,109.370185 206.901131,109.49585 C206.901131,109.628907 206.878756,109.761963 206.841465,109.891324 C206.841465,110.013293 206.841465,110.142653 206.841465,110.264622 C206.841465,110.69336 206.942152,111.051874 207.139798,111.343859 C207.344903,111.643237 207.676799,111.783686 208.157862,111.783686 C209.164738,111.783686 210.126865,111.391908 211.055428,110.593568 C211.972804,109.78414 212.677618,108.886007 213.158681,107.910258 C213.278014,107.743937 213.378702,107.585008 213.457014,107.414992 C213.535327,107.200622 213.602452,107.00843 213.639744,106.834717 C213.718056,106.624044 213.751619,106.439243 213.751619,106.272922 C213.788911,106.054857 213.815015,105.86636 213.815015,105.696343 C213.815015,105.352613 213.781452,105.034756 213.70314,104.735378 C213.624827,104.39904 213.512952,104.073791 213.397348,103.781805 C213.356327,103.700493 213.322764,103.633964 213.285473,103.589612 C213.285473,103.504604 213.263098,103.423291 213.222077,103.341979 C213.054264,102.953897 212.920014,102.573207 212.793222,102.196213 C212.677618,101.771171 212.617951,101.301777 212.617951,100.791726 C212.617951,100.540397 212.629138,100.292764 212.670159,100.041434 C212.707451,99.790105 212.778305,99.5055116 212.864076,99.2061341 L213.333952,97.5022695 L218.987375,99.3983271 L218.8755,99.9083776 L223.384068,99.9083776 L229.831805,79 L236.085625,79 L225.98703,111.783686 L230.495598,111.783686 C230.517973,111.702373 230.544077,111.628453 230.566452,111.543444 C230.603744,111.377124 230.644765,111.203411 230.685785,111.033394 L234.772957,97.5022695 L241.093902,97.5022695 L236.760605,111.783686 L240.672506,111.783686 L240.672506,111.735637 C240.672506,110.67488 240.806756,109.628907 241.093902,108.612502 C241.410882,107.5924 241.772612,106.649916 242.179091,105.762871 C242.179091,105.722215 242.179091,105.696343 242.179091,105.696343 C242.216383,105.644599 242.238758,105.611334 242.238758,105.570678 C243.323947,103.367851 244.934949,101.353521 247.105326,99.5313837 C249.309267,97.7092465 251.636269,96.8000259 254.090064,96.8000259 C254.168377,96.8000259 254.220585,96.8000259 254.261606,96.8000259 C254.339919,96.8000259 254.429419,96.8000259 254.507731,96.8000259 C254.545023,96.8406821 254.60096,96.8665543 254.690461,96.8665543 C254.768773,96.8665543 254.847086,96.8665543 254.925398,96.8665543 C256.454359,97.0328751 257.692443,97.6242381 258.662028,98.6406432 C259.624154,99.6570484 260.101488,100.954351 260.101488,102.510375 C260.101488,102.554727 260.101488,102.621255 260.101488,102.706264 C260.101488,102.787576 260.101488,102.850409 260.101488,102.891065 C260.101488,102.979769 260.09403,103.064778 260.04928,103.149786 C260.04928,103.190442 260.04928,103.256971 260.04928,103.341979 L259.743488,106.139865 L253.732064,106.139865 L254.026668,103.079562 C252.859438,103.16457 251.763061,103.656141 250.726352,104.550577 C249.682184,105.433926 248.828203,106.405978 248.190515,107.466736 C248.067453,107.673713 247.951848,107.876994 247.832515,108.043315 C247.754202,108.217028 247.664702,108.383348 247.586389,108.560757 C247.586389,108.60511 247.534181,108.741862 247.414848,109.00428 C247.332806,109.211257 247.22466,109.481066 247.105326,109.8211 C247.064305,109.865452 247.034472,109.920892 246.993451,110.013293 C246.993451,110.057645 246.967347,110.105693 246.933784,110.150045 C246.844284,110.438335 246.765972,110.73032 246.68393,111.033394 C246.605617,111.284723 246.564597,111.469524 246.564597,111.598885 C246.564597,111.643237 246.564597,111.691285 246.564597,111.735637 C246.613076,111.776294 246.646638,111.783686 246.68393,111.783686 L287,111.783686 L285.012352,118.085397 L246.68393,118.085397 C245.561449,118.085397 244.52474,117.82298 243.562614,117.316626 C242.760842,116.854623 242.115695,116.218908 241.615986,115.402088 L240.784381,118.085397 L235.377083,118.085397 C233.889144,118.085397 232.684621,117.582739 231.767245,116.566334 C231.398057,116.137596 231.110911,115.686681 230.89089,115.202503 L230.010806,118.085397 L224.659445,118.085397 C223.171505,118.085397 221.963254,117.582739 221.042149,116.566334 C220.117314,115.505576 219.669814,114.274802 219.669814,112.881403 C219.669814,112.703994 219.669814,112.563546 219.669814,112.430489 C219.707105,112.260472 219.72948,112.094151 219.72948,111.920438 C219.770501,111.794774 219.800335,111.669109 219.841356,111.543444 C219.878647,111.377124 219.919668,111.203411 219.95696,111.033394 L221.422524,106.272922 L219.781689,106.272922 C219.740668,106.690572 219.68473,107.108222 219.606418,107.533264 C219.516918,107.958306 219.412501,108.375956 219.296897,108.804695 C218.577167,111.136882 217.160081,113.273181 215.079204,115.217287 C212.990868,117.165089 210.716074,118.151926 208.221258,118.151926 C207.818508,118.151926 207.415757,118.100182 207.013007,118.015173 C206.610256,117.933861 206.196318,117.834068 205.756276,117.708404 C204.111711,117.117041 202.884814,116.122812 202.086771,114.714628 C201.952521,114.492867 201.848104,114.24893 201.736229,114.023473 L200.457124,118.085397 C200.169977,118.085397 199.879102,118.085397 199.562123,118.085397 C199.278706,118.085397 198.976643,118.085397 198.659663,118.085397 C197.77585,118.085397 196.914411,117.911685 196.071618,117.571651 C195.266117,117.231617 194.550116,116.762223 193.908699,116.17086 C193.103198,116.762223 192.215655,117.231617 191.257258,117.571651 C190.332424,117.911685 189.392673,118.085397 188.426817,118.085397 C188.229171,118.085397 188.031525,118.085397 187.826421,118.085397 C187.666066,118.041045 187.483337,118.007781 187.278233,117.956037 C187.080586,117.956037 186.88294,117.941253 186.677836,117.893205 C186.521211,117.808196 186.338481,117.74906 186.133377,117.708404 C185.04073,117.324018 184.164375,116.725263 183.459561,115.930619 L182.810685,118.085397 L164.936768,118.085397 L164.936768,111.783686 L168.84121,111.783686 C169.128356,111.783686 169.404315,111.776294 169.687732,111.735637 C169.96742,111.654325 170.250837,111.561925 170.526795,111.476916 C171.731318,111.007522 172.812777,110.246142 173.778633,109.185385 C174.78178,108.083971 175.281489,106.923421 175.281489,105.696343 C175.281489,105.008883 175.083843,104.543185 174.681092,104.291856 C174.278342,103.99987 173.801008,103.848334 173.237903,103.848334 C172.443589,103.848334 171.529943,104.192063 170.526795,104.868435 C169.523648,105.50415 168.501855,106.387498 167.457688,107.533264 C167.379375,107.658929 167.286146,107.810466 167.166812,107.976786 C167.047479,108.109843 166.913229,108.22442 166.793895,108.35378 C165.630394,109.798924 164.515371,111.469524 163.433912,113.372974 C162.348723,115.235767 161.464909,117.257489 160.782471,119.412268 L155.721986,136 M109.340792,105 C108.752151,105.390438 108.239243,105.930777 107.836489,106.607072 C107.430293,107.24502 107.175559,107.931773 107.055077,108.646414 C107.055077,108.684761 107.055077,108.74751 107.055077,108.827689 C107.055077,108.869522 107.055077,108.89741 107.055077,108.939243 C107.020654,108.984562 107,109.047311 107,109.134462 C107,109.176295 107,109.207669 107,109.246016 C107.034423,109.964143 107.237522,110.602092 107.612737,111.159861 C108.022375,111.721116 108.611015,112 109.385542,112 C110.129088,112 110.817556,111.742032 111.444062,111.226096 C112.108434,110.703187 112.628227,110.079183 113,109.364542 C112.036145,109.158865 111.209983,108.660359 110.504303,107.869024 C109.839931,107.060259 109.450947,106.115538 109.340792,105 M150,103 C148.618138,103.099075 147.411695,103.741083 146.369928,104.922061 C145.328162,106.107001 144.562053,107.39498 144.060859,108.801849 C144.060859,108.849406 144.039379,108.88111 144,108.928666 C144,108.928666 144,108.952444 144,109 C145.768496,107.783355 147.121718,106.669749 148.048926,105.667107 C149.004773,104.628798 149.656325,103.729194 150,103 M95,103 C93.6153846,103.099075 92.3989267,103.741083 91.3577818,104.922061 C90.3202147,106.107001 89.5474061,107.39498 89.0465116,108.801849 C89.0465116,108.849406 89.0357782,108.88111 89,108.928666 C89,108.928666 89,108.952444 89,109 C90.7674419,107.783355 92.1091234,106.669749 93.0286225,105.667107 C93.9910555,104.628798 94.6529517,103.729194 95,103 M239.992721,92 C238.897179,92 237.969063,91.5723377 237.182894,90.6902843 C236.404004,89.7738651 236,88.7047094 236,87.4789987 C236,86.2532881 236.404004,85.199406 237.182894,84.3288078 C237.969063,83.4505728 238.897179,83 239.992721,83 C241.135578,83 242.074613,83.4505728 242.817106,84.3288078 C243.603276,85.199406 244,86.2532881 244,87.4789987 C244,88.7047094 243.603276,89.7738651 242.817106,90.6902843 C242.074613,91.5723377 241.135578,92 239.992721,92 M67.5308331,136 L62.8906398,132.187142 C64.4716882,130.017374 65.9240466,127.743753 67.225654,125.362572 C68.5272613,123.022189 69.7369472,120.644716 70.8436811,118.222736 C69.7773926,118.69007 68.6853661,119.068389 67.5749554,119.368818 C66.6034481,119.625976 65.6008918,119.754555 64.5697377,119.754555 C64.4259318,119.754555 64.2817173,119.752082 64.1370942,119.747137 C63.5046749,119.747137 62.8759323,119.713756 62.2398361,119.628449 C61.651539,119.580232 61.0191197,119.442998 60.3389011,119.235294 C58.724761,118.808758 57.3753546,117.963105 56.3090661,116.679789 C55.2391007,115.403891 54.5552054,113.87949 54.2426725,112.091749 C54.2022271,111.832119 54.1581048,111.598451 54.1176594,111.390747 C54.0698603,111.138535 54.0625066,110.904867 54.0625066,110.682327 C54.0220611,110.474623 54,110.266918 54,110.055505 C54,109.795875 54,109.554789 54,109.295159 C54,109.083745 54,108.861205 54,108.649792 C54,108.438378 54.0220611,108.204711 54.0625066,107.945081 C54.3823931,104.121096 55.7317996,100.408381 58.1474945,96.7958095 C60.5962811,93.1424388 63.2730329,89.989784 66.1556886,87.3563899 C67.0675491,86.5070276 67.968379,85.7133004 68.8324404,84.9937533 C69.7443009,84.2704971 70.6010085,83.6251301 71.435655,83.0761973 C71.512869,83.0316892 71.5937598,82.9983082 71.6709738,82.9575091 C71.7481878,82.872202 71.8327555,82.8054399 71.9136464,82.7609318 C72.9799349,82.0413847 74.1491753,81.3626366 75.4140141,80.7246877 C76.6862065,80.0904477 77.9620758,79.623113 79.2747137,79.3263925 C79.7085828,79.2336674 80.1240677,79.1743233 80.5138145,79.1335242 C80.9513604,79.0519261 81.3852295,79 81.8227755,79 C82.6905137,79 83.5178065,79.1261062 84.3120076,79.3746096 C85.1356235,79.626822 85.9114403,80.0644846 86.6173968,80.6616346 C87.4924887,81.3366736 88.1065238,82.1007288 88.4668558,82.9575091 C88.819834,83.8031624 89,84.6933238 89,85.6279932 C89,85.9247137 88.9816157,86.2251432 88.9411703,86.5181546 C88.9044017,86.8222931 88.8566026,87.1375586 88.819834,87.4750781 C88.6617292,88.2465513 88.4300872,89.0106065 88.1175544,89.7709526 C87.7976678,90.4904997 87.4446896,91.1952108 87.047589,91.8813769 C86.2901565,93.238873 85.3157895,94.6742582 84.1318416,96.1615695 C82.9478937,97.6488808 81.580103,99.1250651 80.0358231,100.619794 C79.601954,101.035203 79.1570543,101.472866 78.6827398,101.899401 C78.2451938,102.322228 77.7855867,102.737637 77.314949,103.167881 L73.5719088,98.3202108 C73.7667822,98.1533056 73.9543019,97.9789823 74.1124068,97.808368 C74.3036033,97.6340448 74.5021536,97.4745575 74.7043807,97.3076523 C76.36632,95.7721239 77.8076479,94.2551406 79.0320412,92.7715383 C80.2932031,91.280518 81.2859544,89.8970588 81.9955878,88.6211609 C82.0323563,88.5395627 82.0985398,88.3949115 82.1757538,88.1797892 C82.2897363,87.9683758 82.4184263,87.7347085 82.5397626,87.4750781 C82.580208,87.39348 82.5875617,87.3304269 82.5875617,87.2896278 C82.6243303,87.2488287 82.6500683,87.2080297 82.6500683,87.1635216 C82.7677277,86.8705102 82.8743566,86.5849167 82.9552474,86.3327043 C83.0729068,86.0730739 83.1243828,85.8913326 83.1243828,85.7652264 C83.1243828,85.7207184 83.1243828,85.6984643 83.1243828,85.6984643 C83.0876142,85.6539563 83.0655531,85.6279932 83.0655531,85.6279932 C82.9074483,85.45367 82.7125749,85.3609448 82.477256,85.3201458 C82.2382603,85.2348386 81.9624961,85.1866216 81.6426095,85.1866216 C81.2565396,85.1866216 80.8189936,85.2459656 80.3410022,85.3720718 C79.8666877,85.498178 79.3739889,85.6984643 78.8592289,85.9506767 C78.5025738,86.0804919 78.1422418,86.2511062 77.7892636,86.4699375 C77.4326085,86.6368428 77.0906608,86.8222931 76.7707742,87.0299974 C76.3332283,87.2896278 75.928774,87.5492582 75.5316735,87.8014706 C75.1308961,88.061101 74.8220401,88.2725143 74.5867213,88.4394196 C74.0351928,88.7732301 73.4689568,89.1589667 72.9174283,89.5855023 C72.3658998,90.00462 71.8106944,90.4497007 71.255489,90.9207444 C68.8875932,92.9644066 66.63368,95.3678423 64.5047799,98.1310515 C62.3685261,100.894261 60.9382288,103.76874 60.2322723,106.747072 C60.1513814,107.040083 60.0668137,107.399857 59.9895997,107.826393 C59.9491543,108.252928 59.905032,108.664628 59.8645866,109.094872 C59.8645866,109.176471 59.8645866,109.269196 59.8645866,109.350794 C59.8645866,109.436101 59.8645866,109.521408 59.8645866,109.603006 C59.8645866,110.415279 60.0043072,111.183043 60.2763946,111.898881 C60.5595126,112.581338 61.0705957,113.026419 61.8280282,113.241541 C62.217775,113.326848 62.6001681,113.412155 62.9531463,113.493753 C63.3502469,113.534552 63.73264,113.560515 64.0819414,113.560515 C66.1409812,113.560515 68.0603005,112.948529 69.8362223,111.71714 C71.6562664,110.482041 73.3292363,109.135672 74.877193,107.692868 C74.9139616,107.607561 74.9617607,107.540799 74.9985293,107.5 C75.0757433,107.414693 75.1639878,107.355349 75.2412018,107.318259 C75.3956298,106.847215 75.5463809,106.376171 75.7044858,105.908837 C75.903036,105.393285 76.083202,104.918532 76.2486606,104.447488 L81.7602689,106.68031 C79.936548,111.824701 77.9105999,116.906039 75.6566866,121.916905 C73.439542,126.938899 70.7333754,131.623373 67.5308331,136" id="path-1"></path>
        <filter x="-3.0%" y="-8.8%" width="106.0%" height="124.6%" filterUnits="objectBoundingBox" id="filter-2">
            <feOffset dx="0" dy="2" in="SourceAlpha" result="shadowOffsetOuter1"></feOffset>
            <feGaussianBlur stdDeviation="2" in="shadowOffsetOuter1" result="shadowBlurOuter1"></feGaussianBlur>
            <feColorMatrix values="0 0 0 0 0   0 0 0 0 0   0 0 0 0 0  0 0 0 0.5 0" type="matrix" in="shadowBlurOuter1"></feColorMatrix>
        </filter>
    </defs>
    <g id="Page-1" stroke="none" stroke-width="1" fill="none" fill-rule="evenodd">
        <g id="Desktop---grey-tones" transform="translate(-193.000000, -2685.000000)">
            <g id="Who-we-are" transform="translate(143.000000, 2608.000000)">
                <g id="Georepublic_logo">
                    <use fill="black" fill-opacity="1" filter="url(#filter-2)" xlink:href="#path-1"></use>
                    <use fill="#553E3E" fill-rule="evenodd" xlink:href="#path-1"></use>
                </g>
            </g>
        </g>
    </g>
</svg>