<?xml version="1.0" encoding="UTF-8"?>
<svg width="200px" height="200px" viewBox="0 0 200 200" version="1.1" xmlns="http://www.w3.org/2000/svg" xmlns:xlink="http://www.w3.org/1999/xlink">
    <!-- Generator: Sketch 52.2 (67145) - http://www.bohemiancoding.com/sketch -->
    <title>wallpaper - grey</title>
    <desc>Created with Sketch.</desc>
    <g id="wallpaper---grey" stroke="none" stroke-width="1" fill="none" fill-rule="evenodd">
        <rect fill="#FFFFFF" x="0" y="0" width="200" height="200"></rect>
        <rect id="Rectangle" fill="#626262" x="0" y="0" width="200" height="200"></rect>
        <g id="Group-3" opacity="0.500813802" style="mix-blend-mode: lighten;" transform="translate(0.000000, 3.000000)" fill="#979797">
            <ellipse id="Oval-Copy-3" cx="80.401662" cy="63.350073" rx="2.7700831" ry="2.74196494"></ellipse>
            <ellipse id="Oval-Copy-9" cx="121.191136" cy="87.0662893" rx="2.7700831" ry="2.74196494"></ellipse>
            <ellipse id="Oval-Copy-10" cx="88.2963989" cy="150.309533" rx="2.7700831" ry="2.74196494"></ellipse>
            <ellipse id="Oval-Copy-12" cx="136.980609" cy="170.073046" rx="2.7700831" ry="2.74196494"></ellipse>
            <ellipse id="Oval-Copy-13" cx="161.980609" cy="150.309533" rx="2.7700831" ry="2.74196494"></ellipse>
            <ellipse id="Oval-Copy-14" cx="186.980609" cy="21.1879109" rx="2.7700831" ry="2.74196494"></ellipse>
            <ellipse id="Oval-Copy-15" cx="48.8227147" cy="2.74196494" rx="2.7700831" ry="2.74196494"></ellipse>
            <ellipse id="Oval-Copy-16" cx="2.7700831" cy="98.9243974" rx="2.7700831" ry="2.74196494"></ellipse>
            <ellipse id="Oval-Copy-17" cx="36.9806094" cy="93.6541271" rx="2.7700831" ry="2.74196494"></ellipse>
            <ellipse id="Oval-Copy-18" cx="22.5069252" cy="75.2081812" rx="2.7700831" ry="2.74196494"></ellipse>
            <ellipse id="Oval-Copy-19" cx="8.033241" cy="34.3635866" rx="2.7700831" ry="2.74196494"></ellipse>
            <ellipse id="Oval-Copy-20" cx="10.6648199" cy="191.154127" rx="2.7700831" ry="2.74196494"></ellipse>
            <ellipse id="Oval-Copy-21" cx="44.8753463" cy="147.674397" rx="2.7700831" ry="2.74196494"></ellipse>
            <ellipse id="Oval-Copy-22" cx="69.8753463" cy="137.133857" rx="2.7700831" ry="2.74196494"></ellipse>
            <ellipse id="Oval-Copy-23" cx="122.506925" cy="171.390614" rx="2.7700831" ry="2.74196494"></ellipse>
            <ellipse id="Oval-Copy-24" cx="142.243767" cy="139.768992" rx="2.7700831" ry="2.74196494"></ellipse>
            <ellipse id="Oval-Copy-25" cx="117.243767" cy="9.32980278" rx="2.7700831" ry="2.74196494"></ellipse>
            <ellipse id="Oval-Copy-11" cx="113.296399" cy="134.498722" rx="2.7700831" ry="2.74196494"></ellipse>
            <g id="Group" transform="translate(137.292347, 26.834617) rotate(-17.000000) translate(-137.292347, -26.834617) translate(110.976558, 12.341374)" fill-rule="nonzero">
                <path d="M5.50576609,21.8019129 C0.116585199,18.1054111 -1.22487284,10.7843561 2.50953569,5.44987894 C6.24394422,0.115401783 13.6400748,-1.21243958 19.0292557,2.48406225 C21.6851014,4.30573772 24.0771902,5.10026785 26.4435498,5.10026785 C28.8099095,5.10026785 31.2019983,4.30573772 33.857844,2.48406225 C39.2470249,-1.21243958 46.6431555,0.115401783 50.377564,5.44987894 C54.1119725,10.7843561 52.7705145,18.1054111 47.3813336,21.8019129 C40.8842829,26.2583155 33.825679,28.6028245 26.4435498,28.6028245 C19.0614207,28.6028245 12.0028168,26.2583155 5.50576609,21.8019129 Z M8.88663849,16.9724502 C14.423388,20.7701711 20.3153631,22.7271853 26.4435498,22.7271853 C32.5717366,22.7271853 38.4637117,20.7701711 44.0004612,16.9724502 C46.6950516,15.1241993 47.3657807,11.4636718 45.4985764,8.79643326 C43.6313721,6.12919468 39.9333068,5.465274 37.2387164,7.31352492 C33.6225694,9.79388217 30.0638519,10.975907 26.4435498,10.975907 C22.8232478,10.975907 19.2645303,9.79388217 15.6483833,7.31352492 C12.9537928,5.465274 9.25572755,6.12919468 7.38852329,8.79643326 C5.52131902,11.4636718 6.19204804,15.1241993 8.88663849,16.9724502 Z M31.6580926,19.1937546 C30.1282179,19.1937546 28.8880095,17.966135 28.8880095,16.4517896 C28.8880095,14.9374442 30.1282179,13.7098247 31.6580926,13.7098247 C33.1879673,13.7098247 34.4281757,14.9374442 34.4281757,16.4517896 C34.4281757,17.966135 33.1879673,19.1937546 31.6580926,19.1937546 Z M40.7597942,14.8849525 C39.2299196,14.8849525 37.9897111,13.657333 37.9897111,12.1429876 C37.9897111,10.6286422 39.2299196,9.40102264 40.7597942,9.40102264 C42.2896689,9.40102264 43.5298773,10.6286422 43.5298773,12.1429876 C43.5298773,13.657333 42.2896689,14.8849525 40.7597942,14.8849525 Z M12.2675109,14.8849525 C10.7376362,14.8849525 9.49742778,13.657333 9.49742778,12.1429876 C9.49742778,10.6286422 10.7376362,9.40102264 12.2675109,9.40102264 C13.7973855,9.40102264 15.037594,10.6286422 15.037594,12.1429876 C15.037594,13.657333 13.7973855,14.8849525 12.2675109,14.8849525 Z M20.9734863,18.8020453 C19.4436117,18.8020453 18.2034032,17.5744258 18.2034032,16.0600804 C18.2034032,14.5457349 19.4436117,13.3181154 20.9734863,13.3181154 C22.503361,13.3181154 23.7435694,14.5457349 23.7435694,16.0600804 C23.7435694,17.5744258 22.503361,18.8020453 20.9734863,18.8020453 Z" id="Combined-Shape"></path>
            </g>
            <g id="Group-Copy-3" transform="translate(62.398666, 111.085230) rotate(131.000000) translate(-62.398666, -111.085230) translate(36.082876, 96.591986)" fill-rule="nonzero">
                <path d="M5.50576609,21.8019129 C0.116585199,18.1054111 -1.22487284,10.7843561 2.50953569,5.44987894 C6.24394422,0.115401783 13.6400748,-1.21243958 19.0292557,2.48406225 C21.6851014,4.30573772 24.0771902,5.10026785 26.4435498,5.10026785 C28.8099095,5.10026785 31.2019983,4.30573772 33.857844,2.48406225 C39.2470249,-1.21243958 46.6431555,0.115401783 50.377564,5.44987894 C54.1119725,10.7843561 52.7705145,18.1054111 47.3813336,21.8019129 C40.8842829,26.2583155 33.825679,28.6028245 26.4435498,28.6028245 C19.0614207,28.6028245 12.0028168,26.2583155 5.50576609,21.8019129 Z M8.88663849,16.9724502 C14.423388,20.7701711 20.3153631,22.7271853 26.4435498,22.7271853 C32.5717366,22.7271853 38.4637117,20.7701711 44.0004612,16.9724502 C46.6950516,15.1241993 47.3657807,11.4636718 45.4985764,8.79643326 C43.6313721,6.12919468 39.9333068,5.465274 37.2387164,7.31352492 C33.6225694,9.79388217 30.0638519,10.975907 26.4435498,10.975907 C22.8232478,10.975907 19.2645303,9.79388217 15.6483833,7.31352492 C12.9537928,5.465274 9.25572755,6.12919468 7.38852329,8.79643326 C5.52131902,11.4636718 6.19204804,15.1241993 8.88663849,16.9724502 Z M31.6580926,19.1937546 C30.1282179,19.1937546 28.8880095,17.966135 28.8880095,16.4517896 C28.8880095,14.9374442 30.1282179,13.7098247 31.6580926,13.7098247 C33.1879673,13.7098247 34.4281757,14.9374442 34.4281757,16.4517896 C34.4281757,17.966135 33.1879673,19.1937546 31.6580926,19.1937546 Z M40.7597942,14.8849525 C39.2299196,14.8849525 37.9897111,13.657333 37.9897111,12.1429876 C37.9897111,10.6286422 39.2299196,9.40102264 40.7597942,9.40102264 C42.2896689,9.40102264 43.5298773,10.6286422 43.5298773,12.1429876 C43.5298773,13.657333 42.2896689,14.8849525 40.7597942,14.8849525 Z M12.2675109,14.8849525 C10.7376362,14.8849525 9.49742778,13.657333 9.49742778,12.1429876 C9.49742778,10.6286422 10.7376362,9.40102264 12.2675109,9.40102264 C13.7973855,9.40102264 15.037594,10.6286422 15.037594,12.1429876 C15.037594,13.657333 13.7973855,14.8849525 12.2675109,14.8849525 Z M20.9734863,18.8020453 C19.4436117,18.8020453 18.2034032,17.5744258 18.2034032,16.0600804 C18.2034032,14.5457349 19.4436117,13.3181154 20.9734863,13.3181154 C22.503361,13.3181154 23.7435694,14.5457349 23.7435694,16.0600804 C23.7435694,17.5744258 22.503361,18.8020453 20.9734863,18.8020453 Z" id="Combined-Shape"></path>
            </g>
            <g id="Group-Copy" transform="translate(110.526316, 101.452703)" fill-rule="nonzero">
                <path d="M23.9858342,6.85503204 C29.4110144,3.7306814 36.284519,5.6975985 39.3382365,11.2482644 C42.3919539,16.7989302 40.4695035,23.8314206 35.0443233,26.9557712 C34.1266794,27.4842405 33.2441075,27.9313239 32.3569233,28.3000721 C29.1707006,29.6243898 25.8487023,30.3040541 22.4644267,30.3040541 C18.9511221,30.3040541 15.5069159,29.5716888 12.2126551,28.1477651 C11.3509621,27.7753037 10.4922347,27.3275158 9.59694598,26.8001 C4.20178412,23.6218025 2.34641227,16.5704771 5.45285698,11.0505239 C8.55930169,5.53057066 15.4512155,3.63228364 20.8463774,6.81058113 C20.9348477,6.86269912 21.0056672,6.9025213 21.0564823,6.92963902 C21.5786443,7.14701078 22.0243082,7.23779031 22.4644267,7.23779031 C22.8830725,7.23779031 23.3051803,7.1557266 23.7937312,6.96159819 C23.8407626,6.93694003 23.9054532,6.90132329 23.9858342,6.85503204 Z M13.2054052,22.5309837 C16.1529512,23.7391206 19.1933526,24.3517927 22.2884937,24.3517927 C25.3010572,24.3517927 28.2623789,23.771347 31.1369175,22.6258321 C34.1587755,21.4216098 35.6455867,17.9617913 34.4578031,14.8981111 C33.2700195,11.834431 29.8574308,10.3270426 26.8355727,11.5312649 C25.3176176,12.136176 23.8137716,12.4309433 22.2884937,12.4309433 C20.7205278,12.4309433 19.1745639,12.1194157 17.6124862,11.479153 C14.6022684,10.2453283 11.1754461,11.7191524 9.95846424,14.7710312 C8.74148241,17.8229099 10.1951874,21.297159 13.2054052,22.5309837 Z M27.4636058,20.7673745 C25.9483789,20.7673745 24.7200448,19.5220404 24.7200448,17.985843 C24.7200448,16.4496455 25.9483789,15.2043115 27.4636058,15.2043115 C28.9788327,15.2043115 30.2071669,16.4496455 30.2071669,17.985843 C30.2071669,19.5220404 28.9788327,20.7673745 27.4636058,20.7673745 Z M16.881299,20.7673745 C15.3660721,20.7673745 14.137738,19.5220404 14.137738,17.985843 C14.137738,16.4496455 15.3660721,15.2043115 16.881299,15.2043115 C18.3965259,15.2043115 19.62486,16.4496455 19.62486,17.985843 C19.62486,19.5220404 18.3965259,20.7673745 16.881299,20.7673745 Z" id="Combined-Shape" transform="translate(22.368421, 17.787162) rotate(17.000000) translate(-22.368421, -17.787162) "></path>
            </g>
            <g id="Group-Copy-2" transform="translate(44.585913, 39.266633) rotate(-68.000000) translate(-44.585913, -39.266633) translate(22.217492, 21.479470)" fill-rule="nonzero">
                <path d="M23.9858342,6.85503204 C29.4110144,3.7306814 36.284519,5.6975985 39.3382365,11.2482644 C42.3919539,16.7989302 40.4695035,23.8314206 35.0443233,26.9557712 C34.1266794,27.4842405 33.2441075,27.9313239 32.3569233,28.3000721 C29.1707006,29.6243898 25.8487023,30.3040541 22.4644267,30.3040541 C18.9511221,30.3040541 15.5069159,29.5716888 12.2126551,28.1477651 C11.3509621,27.7753037 10.4922347,27.3275158 9.59694598,26.8001 C4.20178412,23.6218025 2.34641227,16.5704771 5.45285698,11.0505239 C8.55930169,5.53057066 15.4512155,3.63228364 20.8463774,6.81058113 C20.9348477,6.86269912 21.0056672,6.9025213 21.0564823,6.92963902 C21.5786443,7.14701078 22.0243082,7.23779031 22.4644267,7.23779031 C22.8830725,7.23779031 23.3051803,7.1557266 23.7937312,6.96159819 C23.8407626,6.93694003 23.9054532,6.90132329 23.9858342,6.85503204 Z M13.2054052,22.5309837 C16.1529512,23.7391206 19.1933526,24.3517927 22.2884937,24.3517927 C25.3010572,24.3517927 28.2623789,23.771347 31.1369175,22.6258321 C34.1587755,21.4216098 35.6455867,17.9617913 34.4578031,14.8981111 C33.2700195,11.834431 29.8574308,10.3270426 26.8355727,11.5312649 C25.3176176,12.136176 23.8137716,12.4309433 22.2884937,12.4309433 C20.7205278,12.4309433 19.1745639,12.1194157 17.6124862,11.479153 C14.6022684,10.2453283 11.1754461,11.7191524 9.95846424,14.7710312 C8.74148241,17.8229099 10.1951874,21.297159 13.2054052,22.5309837 Z M27.4636058,20.7673745 C25.9483789,20.7673745 24.7200448,19.5220404 24.7200448,17.985843 C24.7200448,16.4496455 25.9483789,15.2043115 27.4636058,15.2043115 C28.9788327,15.2043115 30.2071669,16.4496455 30.2071669,17.985843 C30.2071669,19.5220404 28.9788327,20.7673745 27.4636058,20.7673745 Z M16.881299,20.7673745 C15.3660721,20.7673745 14.137738,19.5220404 14.137738,17.985843 C14.137738,16.4496455 15.3660721,15.2043115 16.881299,15.2043115 C18.3965259,15.2043115 19.62486,16.4496455 19.62486,17.985843 C19.62486,19.5220404 18.3965259,20.7673745 16.881299,20.7673745 Z" id="Combined-Shape" transform="translate(22.368421, 17.787162) rotate(17.000000) translate(-22.368421, -17.787162) "></path>
            </g>
            <path d="M30.860266,180.068672 C25.2455225,176.648612 23.4638806,169.320349 26.8808576,163.70054 C30.2978345,158.08073 37.6194905,156.29748 43.234234,159.71754 C44.4651205,160.4673 45.487668,160.768914 46.4977916,160.768914 C47.5079151,160.768914 48.5304627,160.4673 49.7613492,159.71754 C55.3760927,156.29748 62.6977487,158.08073 66.1147256,163.70054 C69.5317025,169.320349 67.7500607,176.648612 62.1353172,180.068672 C57.2643703,183.03567 51.9865567,184.592434 46.4977916,184.592434 C41.0090265,184.592434 35.7312129,183.03567 30.860266,180.068672 Z M34.2941299,175.173177 C38.1826047,177.204356 42.2748832,178.239495 46.4977916,178.239495 C50.7207,178.239495 54.8129785,177.204356 58.7014533,175.173177 C61.6149271,173.651299 62.7441505,170.053605 61.2236442,167.137502 C59.703138,164.221399 56.1086869,163.091157 53.1952131,164.613035 C50.9818544,165.769202 48.7737719,166.327735 46.4977916,166.327735 C44.2218113,166.327735 42.0137287,165.769202 39.8003701,164.613035 C36.8868963,163.091157 33.2924452,164.221399 31.771939,167.137502 C30.2514327,170.053605 31.3806561,173.651299 34.2941299,175.173177 Z M46.5680669,175.054869 C45.0344247,175.054869 43.791162,173.810484 43.791162,172.275458 C43.791162,170.740432 45.0344247,169.496048 46.5680669,169.496048 C48.1017092,169.496048 49.3449719,170.740432 49.3449719,172.275458 C49.3449719,173.810484 48.1017092,175.054869 46.5680669,175.054869 Z M56.0888839,172.672517 C54.5552417,172.672517 53.311979,171.428132 53.311979,169.893106 C53.311979,168.35808 54.5552417,167.113696 56.0888839,167.113696 C57.6225262,167.113696 58.8657889,168.35808 58.8657889,169.893106 C58.8657889,171.428132 57.6225262,172.672517 56.0888839,172.672517 Z M37.04725,172.672517 C35.5136077,172.672517 34.270345,171.428132 34.270345,169.893106 C34.270345,168.35808 35.5136077,167.113696 37.04725,167.113696 C38.5808922,167.113696 39.8241549,168.35808 39.8241549,169.893106 C39.8241549,171.428132 38.5808922,172.672517 37.04725,172.672517 Z" id="Combined-Shape" fill-rule="nonzero" transform="translate(46.497792, 171.286026) rotate(7.000000) translate(-46.497792, -171.286026) "></path>
            <path d="M158.139071,178.299437 C152.524328,174.879377 150.742686,167.551114 154.159663,161.931304 C157.57664,156.311495 164.898296,154.528245 170.513039,157.948305 C171.743926,158.698065 172.766473,158.999679 173.776597,158.999679 C174.78672,158.999679 175.809268,158.698065 177.040154,157.948305 C182.654898,154.528245 189.976554,156.311495 193.393531,161.931304 C196.810508,167.551114 195.028866,174.879377 189.414122,178.299437 C184.543176,181.266435 179.265362,182.823199 173.776597,182.823199 C168.287832,182.823199 163.010018,181.266435 158.139071,178.299437 Z M161.572935,173.403942 C165.46141,175.435121 169.553688,176.47026 173.776597,176.47026 C177.999505,176.47026 182.091784,175.435121 185.980259,173.403942 C188.893732,171.882064 190.022956,168.28437 188.502449,165.368267 C186.981943,162.452164 183.387492,161.321922 180.474018,162.8438 C178.26066,163.999967 176.052577,164.5585 173.776597,164.5585 C171.500617,164.5585 169.292534,163.999967 167.079175,162.8438 C164.165702,161.321922 160.57125,162.452164 159.050744,165.368267 C157.530238,168.28437 158.659461,171.882064 161.572935,173.403942 Z M173.846872,173.285634 C172.31323,173.285634 171.069967,172.041249 171.069967,170.506223 C171.069967,168.971197 172.31323,167.726813 173.846872,167.726813 C175.380514,167.726813 176.623777,168.971197 176.623777,170.506223 C176.623777,172.041249 175.380514,173.285634 173.846872,173.285634 Z M183.367689,170.903282 C181.834047,170.903282 180.590784,169.658897 180.590784,168.123871 C180.590784,166.588845 181.834047,165.344461 183.367689,165.344461 C184.901331,165.344461 186.144594,166.588845 186.144594,168.123871 C186.144594,169.658897 184.901331,170.903282 183.367689,170.903282 Z M164.326055,170.903282 C162.792413,170.903282 161.54915,169.658897 161.54915,168.123871 C161.54915,166.588845 162.792413,165.344461 164.326055,165.344461 C165.859697,165.344461 167.10296,166.588845 167.10296,168.123871 C167.10296,169.658897 165.859697,170.903282 164.326055,170.903282 Z" id="Combined-Shape-Copy-2" fill-rule="nonzero" transform="translate(173.776597, 169.516791) rotate(152.000000) translate(-173.776597, -169.516791) "></path>
            <path d="M146.161896,86.6001591 C140.547153,83.180099 138.765511,75.8518363 142.182488,70.2320264 C145.599465,64.6122165 152.921121,62.8289671 158.535864,66.2490272 C159.766751,66.9987865 160.789298,67.300401 161.799422,67.300401 C162.809545,67.300401 163.832093,66.9987865 165.06298,66.2490272 C170.677723,62.8289671 177.999379,64.6122165 181.416356,70.2320264 C184.833333,75.8518363 183.051691,83.180099 177.436948,86.6001591 C172.566001,89.5671569 167.288187,91.1239209 161.799422,91.1239209 C156.310657,91.1239209 151.032843,89.5671569 146.161896,86.6001591 Z M149.59576,81.7046643 C153.484235,83.7358428 157.576514,84.7709823 161.799422,84.7709823 C166.02233,84.7709823 170.114609,83.7358428 174.003084,81.7046643 C176.916557,80.182786 178.045781,76.5850916 176.525275,73.6689888 C175.004768,70.7528861 171.410317,69.6226438 168.496843,71.1445221 C166.283485,72.3006891 164.075402,72.8592223 161.799422,72.8592223 C159.523442,72.8592223 157.315359,72.3006891 155.102,71.1445221 C152.188527,69.6226438 148.594076,70.7528861 147.073569,73.6689888 C145.553063,76.5850916 146.682286,80.182786 149.59576,81.7046643 Z M161.869697,81.5863558 C160.336055,81.5863558 159.092792,80.3419713 159.092792,78.8069452 C159.092792,77.2719191 160.336055,76.0275345 161.869697,76.0275345 C163.40334,76.0275345 164.646602,77.2719191 164.646602,78.8069452 C164.646602,80.3419713 163.40334,81.5863558 161.869697,81.5863558 Z M171.390514,79.2040038 C169.856872,79.2040038 168.613609,77.9596193 168.613609,76.4245932 C168.613609,74.8895671 169.856872,73.6451825 171.390514,73.6451825 C172.924157,73.6451825 174.167419,74.8895671 174.167419,76.4245932 C174.167419,77.9596193 172.924157,79.2040038 171.390514,79.2040038 Z M152.34888,79.2040038 C150.815238,79.2040038 149.571975,77.9596193 149.571975,76.4245932 C149.571975,74.8895671 150.815238,73.6451825 152.34888,73.6451825 C153.882523,73.6451825 155.125785,74.8895671 155.125785,76.4245932 C155.125785,77.9596193 153.882523,79.2040038 152.34888,79.2040038 Z" id="Combined-Shape-Copy" fill-rule="nonzero" transform="translate(161.799422, 77.817512) rotate(-141.000000) translate(-161.799422, -77.817512) "></path>
        </g>
    </g>
</svg>