<?xml version="1.0" encoding="UTF-8"?>
<svg width="200px" height="200px" viewBox="0 0 200 200" version="1.1" xmlns="http://www.w3.org/2000/svg" xmlns:xlink="http://www.w3.org/1999/xlink">
    <!-- Generator: Sketch 52.2 (67145) - http://www.bohemiancoding.com/sketch -->
    <title>wallpapaer - white</title>
    <desc>Created with Sketch.</desc>
    <g id="wallpapaer---white" stroke="none" stroke-width="1" fill="none" fill-rule="evenodd">
        <rect fill="#FFFFFF" x="0" y="0" width="200" height="200"></rect>
        <g id="Group-3" transform="translate(0.000000, 2.000000)" fill="#979797">
            <ellipse id="Oval-Copy-3" cx="80" cy="65.1365979" rx="3" ry="2.56443299"></ellipse>
            <ellipse id="Oval-Copy-9" cx="121" cy="89.7551546" rx="3" ry="2.56443299"></ellipse>
            <ellipse id="Oval-Copy-10" cx="88" cy="154.378866" rx="3" ry="2.56443299"></ellipse>
            <ellipse id="Oval-Copy-12" cx="137" cy="174.89433" rx="3" ry="2.56443299"></ellipse>
            <ellipse id="Oval-Copy-13" cx="162" cy="154.378866" rx="3" ry="2.56443299"></ellipse>
            <ellipse id="Oval-Copy-14" cx="187" cy="22.0541237" rx="3" ry="2.56443299"></ellipse>
            <ellipse id="Oval-Copy-15" cx="49" cy="2.56443299" rx="3" ry="2.56443299"></ellipse>
            <ellipse id="Oval-Copy-16" cx="3" cy="101.03866" rx="3" ry="2.56443299"></ellipse>
            <ellipse id="Oval-Copy-17" cx="37" cy="95.9097938" rx="3" ry="2.56443299"></ellipse>
            <ellipse id="Oval-Copy-18" cx="23" cy="77.4458763" rx="3" ry="2.56443299"></ellipse>
            <ellipse id="Oval-Copy-19" cx="8" cy="35.3891753" rx="3" ry="2.56443299"></ellipse>
            <ellipse id="Oval-Copy-20" cx="11" cy="196.435567" rx="3" ry="2.56443299"></ellipse>
            <ellipse id="Oval-Copy-21" cx="45" cy="151.301546" rx="3" ry="2.56443299"></ellipse>
            <ellipse id="Oval-Copy-22" cx="70" cy="141.043814" rx="3" ry="2.56443299"></ellipse>
            <ellipse id="Oval-Copy-23" cx="123" cy="175.920103" rx="3" ry="2.56443299"></ellipse>
            <ellipse id="Oval-Copy-24" cx="142" cy="143.095361" rx="3" ry="2.56443299"></ellipse>
            <ellipse id="Oval-Copy-25" cx="117" cy="9.74484536" rx="3" ry="2.56443299"></ellipse>
            <ellipse id="Oval-Copy-11" cx="113" cy="137.966495" rx="3" ry="2.56443299"></ellipse>
            <g id="Group" transform="translate(137.470484, 27.477613) rotate(-17.000000) translate(-137.470484, -27.477613) translate(110.970484, 12.603902)" fill-rule="nonzero">
                <path d="M5.50576609,22.3638179 C0.116585199,18.5720454 -1.22487284,11.0623034 2.50953569,5.59033974 C6.24394422,0.118376056 13.6400748,-1.24368802 19.0292557,2.54808447 C21.6851014,4.41671034 24.0771902,5.23171805 26.4435498,5.23171805 C28.8099095,5.23171805 31.2019983,4.41671034 33.857844,2.54808447 C39.2470249,-1.24368802 46.6431555,0.118376056 50.377564,5.59033974 C54.1119725,11.0623034 52.7705145,18.5720454 47.3813336,22.3638179 C40.8842829,26.9350762 33.825679,29.3400107 26.4435498,29.3400107 C19.0614207,29.3400107 12.0028168,26.9350762 5.50576609,22.3638179 Z M8.88663849,17.4098845 C14.423388,21.3054848 20.3153631,23.3129375 26.4435498,23.3129375 C32.5717366,23.3129375 38.4637117,21.3054848 44.0004612,17.4098845 C46.6950516,15.5139983 47.3657807,11.7591273 45.4985764,9.02314546 C43.6313721,6.28716362 39.9333068,5.60613158 37.2387164,7.50201783 C33.6225694,10.0463018 30.0638519,11.2587912 26.4435498,11.2587912 C22.8232478,11.2587912 19.2645303,10.0463018 15.6483833,7.50201783 C12.9537928,5.60613158 9.25572755,6.28716362 7.38852329,9.02314546 C5.52131902,11.7591273 6.19204804,15.5139983 8.88663849,17.4098845 Z M31.6580926,19.688439 C30.1282179,19.688439 28.8880095,18.4291798 28.8880095,16.8758048 C28.8880095,15.3224299 30.1282179,14.0631707 31.6580926,14.0631707 C33.1879673,14.0631707 34.4281757,15.3224299 34.4281757,16.8758048 C34.4281757,18.4291798 33.1879673,19.688439 31.6580926,19.688439 Z M40.7597942,15.2685853 C39.2299196,15.2685853 37.9897111,14.0093261 37.9897111,12.4559512 C37.9897111,10.9025762 39.2299196,9.64331704 40.7597942,9.64331704 C42.2896689,9.64331704 43.5298773,10.9025762 43.5298773,12.4559512 C43.5298773,14.0093261 42.2896689,15.2685853 40.7597942,15.2685853 Z M12.2675109,15.2685853 C10.7376362,15.2685853 9.49742778,14.0093261 9.49742778,12.4559512 C9.49742778,10.9025762 10.7376362,9.64331704 12.2675109,9.64331704 C13.7973855,9.64331704 15.037594,10.9025762 15.037594,12.4559512 C15.037594,14.0093261 13.7973855,15.2685853 12.2675109,15.2685853 Z M20.9734863,19.2866341 C19.4436117,19.2866341 18.2034032,18.0273749 18.2034032,16.4739999 C18.2034032,14.920625 19.4436117,13.6613658 20.9734863,13.6613658 C22.503361,13.6613658 23.7435694,14.920625 23.7435694,16.4739999 C23.7435694,18.0273749 22.503361,19.2866341 20.9734863,19.2866341 Z" id="Combined-Shape"></path>
            </g>
            <g id="Group-Copy-3" transform="translate(62.272713, 114.086312) rotate(131.000000) translate(-62.272713, -114.086312) translate(35.772713, 99.212601)" fill-rule="nonzero">
                <path d="M5.50576609,22.3638179 C0.116585199,18.5720454 -1.22487284,11.0623034 2.50953569,5.59033974 C6.24394422,0.118376056 13.6400748,-1.24368802 19.0292557,2.54808447 C21.6851014,4.41671034 24.0771902,5.23171805 26.4435498,5.23171805 C28.8099095,5.23171805 31.2019983,4.41671034 33.857844,2.54808447 C39.2470249,-1.24368802 46.6431555,0.118376056 50.377564,5.59033974 C54.1119725,11.0623034 52.7705145,18.5720454 47.3813336,22.3638179 C40.8842829,26.9350762 33.825679,29.3400107 26.4435498,29.3400107 C19.0614207,29.3400107 12.0028168,26.9350762 5.50576609,22.3638179 Z M8.88663849,17.4098845 C14.423388,21.3054848 20.3153631,23.3129375 26.4435498,23.3129375 C32.5717366,23.3129375 38.4637117,21.3054848 44.0004612,17.4098845 C46.6950516,15.5139983 47.3657807,11.7591273 45.4985764,9.02314546 C43.6313721,6.28716362 39.9333068,5.60613158 37.2387164,7.50201783 C33.6225694,10.0463018 30.0638519,11.2587912 26.4435498,11.2587912 C22.8232478,11.2587912 19.2645303,10.0463018 15.6483833,7.50201783 C12.9537928,5.60613158 9.25572755,6.28716362 7.38852329,9.02314546 C5.52131902,11.7591273 6.19204804,15.5139983 8.88663849,17.4098845 Z M31.6580926,19.688439 C30.1282179,19.688439 28.8880095,18.4291798 28.8880095,16.8758048 C28.8880095,15.3224299 30.1282179,14.0631707 31.6580926,14.0631707 C33.1879673,14.0631707 34.4281757,15.3224299 34.4281757,16.8758048 C34.4281757,18.4291798 33.1879673,19.688439 31.6580926,19.688439 Z M40.7597942,15.2685853 C39.2299196,15.2685853 37.9897111,14.0093261 37.9897111,12.4559512 C37.9897111,10.9025762 39.2299196,9.64331704 40.7597942,9.64331704 C42.2896689,9.64331704 43.5298773,10.9025762 43.5298773,12.4559512 C43.5298773,14.0093261 42.2896689,15.2685853 40.7597942,15.2685853 Z M12.2675109,15.2685853 C10.7376362,15.2685853 9.49742778,14.0093261 9.49742778,12.4559512 C9.49742778,10.9025762 10.7376362,9.64331704 12.2675109,9.64331704 C13.7973855,9.64331704 15.037594,10.9025762 15.037594,12.4559512 C15.037594,14.0093261 13.7973855,15.2685853 12.2675109,15.2685853 Z M20.9734863,19.2866341 C19.4436117,19.2866341 18.2034032,18.0273749 18.2034032,16.4739999 C18.2034032,14.920625 19.4436117,13.6613658 20.9734863,13.6613658 C22.503361,13.6613658 23.7435694,14.920625 23.7435694,16.4739999 C23.7435694,18.0273749 22.503361,19.2866341 20.9734863,19.2866341 Z" id="Combined-Shape"></path>
            </g>
            <g id="Group-Copy" transform="translate(111.000000, 103.603093)" fill-rule="nonzero">
                <path d="M23.1269274,7.11584822 C28.5840204,3.87262414 35.4979574,5.91437734 38.5696378,11.6762316 C41.6413183,17.4380859 39.7075594,24.7381443 34.2504664,27.9813683 C33.3274246,28.5299446 32.439661,28.9940383 31.5472582,29.3768164 C28.342293,30.7515209 25.0007535,31.4570447 21.5965703,31.4570447 C18.0625993,31.4570447 14.5981331,30.6968148 11.2844942,29.2187146 C10.4177325,28.832082 9.5539537,28.3672569 8.6533986,27.8197742 C3.22650049,24.5205508 1.3602147,17.2009407 4.48493261,11.4709676 C7.60965053,5.74099452 14.542105,3.77048261 19.9690032,7.06970607 C20.0579939,7.12380701 20.1292299,7.16514432 20.1803439,7.1932938 C20.7055775,7.41893599 21.153863,7.51316945 21.5965703,7.51316945 C22.0176788,7.51316945 22.4422696,7.42798343 22.9336944,7.22646893 C22.9810023,7.20087259 23.0460735,7.16390074 23.1269274,7.11584822 Z M12.283084,23.3882292 C15.2479686,24.6423325 18.3062547,25.2783152 21.4196024,25.2783152 C24.449887,25.2783152 27.4286282,24.6757851 30.3200758,23.4866863 C33.3597095,22.2366465 34.8552666,18.6451908 33.6604961,15.4649456 C32.4657255,12.2847004 29.0330627,10.7199597 25.993429,11.9699996 C24.4665447,12.597926 22.9538526,12.9039084 21.4196024,12.9039084 C19.8424133,12.9039084 18.2873555,12.580528 16.7160891,11.915905 C13.6881641,10.6351365 10.241184,12.1650357 9.01704344,15.3330306 C7.7929029,18.5010254 9.25515908,22.1074607 12.283084,23.3882292 Z M26.6251564,21.5575192 C25.1010164,21.5575192 23.8654568,20.2648034 23.8654568,18.6701576 C23.8654568,17.0755119 25.1010164,15.7827961 26.6251564,15.7827961 C28.1492965,15.7827961 29.3848561,17.0755119 29.3848561,18.6701576 C29.3848561,20.2648034 28.1492965,21.5575192 26.6251564,21.5575192 Z M15.9806008,21.5575192 C14.4564607,21.5575192 13.2209011,20.2648034 13.2209011,18.6701576 C13.2209011,17.0755119 14.4564607,15.7827961 15.9806008,15.7827961 C17.5047408,15.7827961 18.7403004,17.0755119 18.7403004,18.6701576 C18.7403004,20.2648034 17.5047408,21.5575192 15.9806008,21.5575192 Z" id="Combined-Shape" transform="translate(21.500000, 18.463918) rotate(17.000000) translate(-21.500000, -18.463918) "></path>
            </g>
            <g id="Group-Copy-2" transform="translate(44.832543, 40.235302) rotate(-68.000000) translate(-44.832543, -40.235302) translate(23.332543, 21.771385)" fill-rule="nonzero">
                <path d="M22.9858342,7.03170812 C28.4110144,3.82683298 35.284519,5.84444382 38.3382365,11.5381681 C41.3919539,17.2318923 39.4695035,24.4456324 34.0443233,27.6505076 C33.1266794,28.1925972 32.2441075,28.6512034 31.3569233,29.0294554 C28.1707006,30.387905 24.8487023,31.0850864 21.4644267,31.0850864 C17.9511221,31.0850864 14.5069159,30.3338457 11.2126551,28.873223 C10.3509621,28.4911621 9.49223468,28.0318332 8.59694598,27.4908242 C3.20178412,24.2306118 1.34641227,16.9975512 4.45285698,11.3353312 C7.55930169,5.67311114 14.4512155,3.7258992 19.8463774,6.98611157 C19.9348477,7.03957281 20.0056672,7.08042133 20.0564823,7.10823796 C20.5786443,7.33121209 21.0243082,7.42433129 21.4644267,7.42433129 C21.8830725,7.42433129 22.3051803,7.34015255 22.7937312,7.14102082 C22.8407626,7.11572714 22.9054532,7.07919245 22.9858342,7.03170812 Z M12.2054052,23.1116792 C15.1529512,24.3509536 18.1933526,24.9794162 21.2884937,24.9794162 C24.3010572,24.9794162 27.2623789,24.3840106 30.1369175,23.2089721 C33.1587755,21.9737131 34.6455867,18.424724 33.4578031,15.282083 C32.2700195,12.1394421 28.8574308,10.5932035 25.8355727,11.8284624 C24.3176176,12.448964 22.8137716,12.7513284 21.2884937,12.7513284 C19.7205278,12.7513284 18.1745639,12.4317717 16.6124862,11.7750075 C13.6022684,10.5093832 10.1754461,12.0211924 8.95846424,15.1517278 C7.74148241,18.2822633 9.19518738,21.8460549 12.2054052,23.1116792 Z M26.4636058,21.3026161 C24.9483789,21.3026161 23.7200448,20.0251858 23.7200448,18.4493956 C23.7200448,16.8736055 24.9483789,15.5961752 26.4636058,15.5961752 C27.9788327,15.5961752 29.2071669,16.8736055 29.2071669,18.4493956 C29.2071669,20.0251858 27.9788327,21.3026161 26.4636058,21.3026161 Z M15.881299,21.3026161 C14.3660721,21.3026161 13.137738,20.0251858 13.137738,18.4493956 C13.137738,16.8736055 14.3660721,15.5961752 15.881299,15.5961752 C17.3965259,15.5961752 18.62486,16.8736055 18.62486,18.4493956 C18.62486,20.0251858 17.3965259,21.3026161 15.881299,21.3026161 Z" id="Combined-Shape" transform="translate(21.368421, 18.245594) rotate(17.000000) translate(-21.368421, -18.245594) "></path>
            </g>
            <path d="M30.860266,184.709617 C25.2455225,181.201411 23.4638806,173.684276 26.8808576,167.919626 C30.2978345,162.154975 37.6194905,160.325766 43.234234,163.833972 C44.4651205,164.603055 45.487668,164.912443 46.4977916,164.912443 C47.5079151,164.912443 48.5304627,164.603055 49.7613492,163.833972 C55.3760927,160.325766 62.6977487,162.154975 66.1147256,167.919626 C69.5317025,173.684276 67.7500607,181.201411 62.1353172,184.709617 C57.2643703,187.753084 51.9865567,189.349971 46.4977916,189.349971 C41.0090265,189.349971 35.7312129,187.753084 30.860266,184.709617 Z M34.2941299,179.68795 C38.1826047,181.771478 42.2748832,182.833297 46.4977916,182.833297 C50.7207,182.833297 54.8129785,181.771478 58.7014533,179.68795 C61.6149271,178.126848 62.7441505,174.43643 61.2236442,171.44517 C59.703138,168.453909 56.1086869,167.294537 53.1952131,168.855639 C50.9818544,170.041604 48.7737719,170.614533 46.4977916,170.614533 C44.2218113,170.614533 42.0137287,170.041604 39.8003701,168.855639 C36.8868963,167.294537 33.2924452,168.453909 31.771939,171.44517 C30.2514327,174.43643 31.3806561,178.126848 34.2941299,179.68795 Z M46.5680669,179.566592 C45.0344247,179.566592 43.791162,178.290136 43.791162,176.715547 C43.791162,175.140959 45.0344247,173.864502 46.5680669,173.864502 C48.1017092,173.864502 49.3449719,175.140959 49.3449719,176.715547 C49.3449719,178.290136 48.1017092,179.566592 46.5680669,179.566592 Z M56.0888839,177.12284 C54.5552417,177.12284 53.311979,175.846383 53.311979,174.271795 C53.311979,172.697206 54.5552417,171.42075 56.0888839,171.42075 C57.6225262,171.42075 58.8657889,172.697206 58.8657889,174.271795 C58.8657889,175.846383 57.6225262,177.12284 56.0888839,177.12284 Z M37.04725,177.12284 C35.5136077,177.12284 34.270345,175.846383 34.270345,174.271795 C34.270345,172.697206 35.5136077,171.42075 37.04725,171.42075 C38.5808922,171.42075 39.8241549,172.697206 39.8241549,174.271795 C39.8241549,175.846383 38.5808922,177.12284 37.04725,177.12284 Z" id="Combined-Shape" fill-rule="nonzero" transform="translate(46.497792, 175.700614) rotate(7.000000) translate(-46.497792, -175.700614) "></path>
            <path d="M158.139071,182.894783 C152.524328,179.386577 150.742686,171.869442 154.159663,166.104792 C157.57664,160.340141 164.898296,158.510932 170.513039,162.019138 C171.743926,162.788221 172.766473,163.097609 173.776597,163.097609 C174.78672,163.097609 175.809268,162.788221 177.040154,162.019138 C182.654898,158.510932 189.976554,160.340141 193.393531,166.104792 C196.810508,171.869442 195.028866,179.386577 189.414122,182.894783 C184.543176,185.93825 179.265362,187.535137 173.776597,187.535137 C168.287832,187.535137 163.010018,185.93825 158.139071,182.894783 Z M161.572935,177.873116 C165.46141,179.956645 169.553688,181.018463 173.776597,181.018463 C177.999505,181.018463 182.091784,179.956645 185.980259,177.873116 C188.893732,176.312014 190.022956,172.621596 188.502449,169.630336 C186.981943,166.639076 183.387492,165.479703 180.474018,167.040805 C178.26066,168.22677 176.052577,168.799699 173.776597,168.799699 C171.500617,168.799699 169.292534,168.22677 167.079175,167.040805 C164.165702,165.479703 160.57125,166.639076 159.050744,169.630336 C157.530238,172.621596 158.659461,176.312014 161.572935,177.873116 Z M173.846872,177.751758 C172.31323,177.751758 171.069967,176.475302 171.069967,174.900713 C171.069967,173.326125 172.31323,172.049669 173.846872,172.049669 C175.380514,172.049669 176.623777,173.326125 176.623777,174.900713 C176.623777,176.475302 175.380514,177.751758 173.846872,177.751758 Z M183.367689,175.308006 C181.834047,175.308006 180.590784,174.031549 180.590784,172.456961 C180.590784,170.882372 181.834047,169.605916 183.367689,169.605916 C184.901331,169.605916 186.144594,170.882372 186.144594,172.456961 C186.144594,174.031549 184.901331,175.308006 183.367689,175.308006 Z M164.326055,175.308006 C162.792413,175.308006 161.54915,174.031549 161.54915,172.456961 C161.54915,170.882372 162.792413,169.605916 164.326055,169.605916 C165.859697,169.605916 167.10296,170.882372 167.10296,172.456961 C167.10296,174.031549 165.859697,175.308006 164.326055,175.308006 Z" id="Combined-Shape-Copy-2" fill-rule="nonzero" transform="translate(173.776597, 173.885780) rotate(152.000000) translate(-173.776597, -173.885780) "></path>
            <path d="M146.161896,88.832122 C140.547153,85.3239159 138.765511,77.8067806 142.182488,72.0421302 C145.599465,66.2774799 152.921121,64.4482703 158.535864,67.9564764 C159.766751,68.7255594 160.789298,69.0349474 161.799422,69.0349474 C162.809545,69.0349474 163.832093,68.7255594 165.06298,67.9564764 C170.677723,64.4482703 177.999379,66.2774799 181.416356,72.0421302 C184.833333,77.8067806 183.051691,85.3239159 177.436948,88.832122 C172.566001,91.8755888 167.288187,93.4724756 161.799422,93.4724756 C156.310657,93.4724756 151.032843,91.8755888 146.161896,88.832122 Z M149.59576,83.8104546 C153.484235,85.893983 157.576514,86.9558014 161.799422,86.9558014 C166.02233,86.9558014 170.114609,85.893983 174.003084,83.8104546 C176.916557,82.2493527 178.045781,78.5589341 176.525275,75.5676741 C175.004768,72.5764141 171.410317,71.4170418 168.496843,72.9781438 C166.283485,74.1641089 164.075402,74.7370373 161.799422,74.7370373 C159.523442,74.7370373 157.315359,74.1641089 155.102,72.9781438 C152.188527,71.4170418 148.594076,72.5764141 147.073569,75.5676741 C145.553063,78.5589341 146.682286,82.2493527 149.59576,83.8104546 Z M161.869697,83.689097 C160.336055,83.689097 159.092792,82.4126407 159.092792,80.838052 C159.092792,79.2634634 160.336055,77.9870071 161.869697,77.9870071 C163.40334,77.9870071 164.646602,79.2634634 164.646602,80.838052 C164.646602,82.4126407 163.40334,83.689097 161.869697,83.689097 Z M171.390514,81.2453441 C169.856872,81.2453441 168.613609,79.9688878 168.613609,78.3942992 C168.613609,76.8197105 169.856872,75.5432542 171.390514,75.5432542 C172.924157,75.5432542 174.167419,76.8197105 174.167419,78.3942992 C174.167419,79.9688878 172.924157,81.2453441 171.390514,81.2453441 Z M152.34888,81.2453441 C150.815238,81.2453441 149.571975,79.9688878 149.571975,78.3942992 C149.571975,76.8197105 150.815238,75.5432542 152.34888,75.5432542 C153.882523,75.5432542 155.125785,76.8197105 155.125785,78.3942992 C155.125785,79.9688878 153.882523,81.2453441 152.34888,81.2453441 Z" id="Combined-Shape-Copy" fill-rule="nonzero" transform="translate(161.799422, 79.823118) rotate(-141.000000) translate(-161.799422, -79.823118) "></path>
        </g>
    </g>
</svg>