<?xml version="1.0" encoding="UTF-8"?>
<svg width="135px" height="87px" viewBox="0 0 135 87" version="1.1" xmlns="http://www.w3.org/2000/svg" xmlns:xlink="http://www.w3.org/1999/xlink">
    <!-- Generator: Sketch 49.3 (51167) - http://www.bohemiancoding.com/sketch -->
    <title>SensorAtlasTag</title>
    <desc>Created with Sketch.</desc>
    <defs></defs>
    <g id="Page-1" stroke="none" stroke-width="1" fill="none" fill-rule="evenodd">
        <g id="Mobile" transform="translate(-93.000000, -1.000000)">
            <g id="SensorAtlasTag" transform="translate(93.000000, 1.000000)">
                <g id="bean" transform="translate(67.865381, 32.459292) scale(-1, 1) rotate(60.000000) translate(-67.865381, -32.459292) translate(56.365381, 17.459292)" stroke="#9013FE" stroke-width="2">
                    <path d="M6.15288467,18.3025844 C6.92657701,17.6918106 7.6043598,17.0469649 8.02431866,16.5966142 C8.96595783,15.5868298 10.1078207,13.1831167 10.7526485,11.1009372 C10.8763988,10.7013415 10.9917981,10.2624359 11.1018726,9.80270409 C13.1888982,10.5508421 14.5943756,12.6329658 14.3920778,14.9452405 C14.1514039,17.6961562 11.7262413,19.7311092 8.97532562,19.4904352 C7.89161484,19.3956228 6.91901649,18.961793 6.15288467,18.3025844 Z" id="Combined-Shape" fill="#417505"></path>
                    <path d="M2.08932879,28.2138077 C1.22679447,27.539922 0.433721646,25.6347855 0.4,25.2 C0.288128959,23.7576057 0.468712444,23.0405361 1.80039879,21.2000765 C2.37863962,20.4009177 4.00968149,19.6881277 5.57302561,18.5595183 C6.80906476,17.6671969 8.00278548,16.3649867 8.60039879,15.6000765 C9.45044622,14.5120654 10.3784665,12.0179793 10.8393667,9.8875226 C11.4202962,7.20224404 11.4945941,2.85918469 12.3726848,2.00007652 C12.9488736,1.43634368 12.959866,0.967046059 13.8573091,0.633552444 C14.8226303,0.274835042 16.3864983,-0.0311861294 17.466494,0.273589414 C18.0413049,0.43580148 19.837478,1.20029021 19.8770706,1.51752749 C20.8840567,2.39945579 21.4583665,2.96027996 21.6,3.2 C24.1996012,7.59992348 22.2951321,17.6927189 18.1468827,23.002236 C16.2920189,25.3763534 14.5332109,27.0428847 11.8429415,28.652795 C8.33000525,30.7550054 3.96605979,29.6800707 2.08932879,28.2138077 Z" id="Oval"></path>
                </g>
                <text id="Sensor-Atlas-Network" font-family="HelveticaNeue, Helvetica Neue" font-size="24" font-weight="normal" fill="#000000">
                    <tspan x="0.224" y="62">Sensor Atlas</tspan>
                    <tspan x="30.42" y="90" font-size="20">Network</tspan>
                </text>
                <g id="Growth" transform="translate(59.000000, 0.000000)">
                    <path d="M9.5,32.5 L9.5,9.5" id="Line" stroke="#417505" stroke-width="2" stroke-linecap="square"></path>
                    <polygon id="Triangle" fill="#417505" transform="translate(9.500000, 26.444444) scale(-1, -1) translate(-9.500000, -26.444444) " points="9.5 24 15 28.8888889 4 28.8888889"></polygon>
                    <polygon id="Triangle" fill="#417505" transform="translate(9.500000, 18.444444) scale(-1, -1) translate(-9.500000, -18.444444) " points="9.5 16 15 20.8888889 4 20.8888889"></polygon>
                    <polygon id="Triangle" fill="#4A90E2" transform="translate(9.500000, 8.222222) scale(-1, -1) translate(-9.500000, -8.222222) " points="9.5 4 19 12.4444444 0 12.4444444"></polygon>
                    <polygon id="Triangle" fill="#4A90E2" transform="translate(9.500000, 4.222222) scale(-1, 1) translate(-9.500000, -4.222222) " points="9.5 0 19 8.44444444 0 8.44444444"></polygon>
                    <circle id="Oval-2" fill="#F8E71C" cx="9.5" cy="6.5" r="3.5"></circle>
                </g>
            </g>
        </g>
    </g>
</svg>